<svg width="72" height="41" viewBox="0 0 72 41" fill="none" xmlns="http://www.w3.org/2000/svg">
<path d="M71.569 16.3389C71.5346 15.9945 71.3919 15.6583 71.1279 15.3943C70.8229 15.0901 70.4244 14.9376 70.0259 14.9376H65.7901H63.892H37.6621C35.5295 6.76444 28.1066 0.708374 19.2742 0.708374C8.7831 0.708374 0.25 9.24147 0.25 19.7326C0.25 30.2261 8.7831 38.7568 19.2742 38.7568C28.6584 38.7568 36.4544 31.9251 38.0016 22.9795H45.2088V27.1071V30.8165V33.2427H45.2203C45.2794 34.0471 45.9451 34.6842 46.7667 34.6842C46.788 34.6842 46.8069 34.6792 46.8282 34.6784V34.6874H51.8298V34.685C52.6514 34.6858 53.3172 34.0487 53.3763 33.2435H53.3894V27.1079V22.9804H57.4718V35.5721V38.8486H57.4841C57.5456 39.6538 58.2098 40.2901 59.0314 40.2917C59.0371 40.2917 59.0428 40.2901 59.0486 40.2901H64.06C64.0658 40.2901 64.0715 40.2917 64.0773 40.2917C64.898 40.2901 65.563 39.6538 65.6245 38.8486H65.6368V32.7138V22.9795H65.7918H70.0275V22.9779C70.426 22.9779 70.8245 22.8254 71.1295 22.5204C71.4329 22.2154 71.5846 21.8177 71.5854 21.4192L71.5846 16.338L71.569 16.3389ZM19.2742 30.7755C13.2575 30.7755 8.36247 25.8772 8.36247 19.8613C8.36247 13.8446 13.2575 8.94711 19.2742 8.94711C25.2901 8.94711 30.1827 13.8446 30.1827 19.8613C30.1835 25.878 25.2901 30.7755 19.2742 30.7755Z" fill="white"/>
</svg>
