<svg width="43" height="61" viewBox="0 0 43 61" fill="none" xmlns="http://www.w3.org/2000/svg">
<path d="M42.9986 7.25822H42.9853C42.986 7.22398 42.9958 7.19183 42.9958 7.15688C42.9958 5.13492 41.3562 3.49108 39.3328 3.49108C39.3048 3.49108 39.2797 3.49876 39.2517 3.49946H29.0769V1.12176V1.12036C29.0769 0.504616 28.5779 0.00698907 27.9636 0.00559124V0H15.0693V0.00419352C15.0588 0.00419352 15.0497 0.00139773 15.0392 0.00139773C14.4242 0.00139773 13.9252 0.499724 13.9252 1.11547C13.9252 1.12246 13.9273 1.12945 13.9273 1.13643V3.49876H3.67769C3.67279 3.49876 3.6686 3.49737 3.66371 3.49737C1.64175 3.49737 0 5.14261 0 7.16177C0 7.19462 0.00908584 7.22468 0.00978476 7.25753H0V56.5813H0.00209692C0.00209692 56.5876 0 56.5939 0 56.6002C0 58.6235 1.64245 60.2611 3.66441 60.2611C3.71892 60.2611 3.76994 60.2471 3.82446 60.245V60.2597H39.1196C39.1881 60.2632 39.2531 60.28 39.3223 60.28C41.345 60.28 42.9839 58.6389 42.9839 56.619C42.9839 56.6058 42.9804 56.5939 42.9804 56.5806H43V7.25822H42.9986ZM36.0521 53.3341H6.94651V10.4376H10.439V12.5826C10.4376 12.6056 10.432 12.6266 10.432 12.6503C10.432 13.3479 10.9981 13.9182 11.6998 13.9182C11.7033 13.9182 11.7061 13.9175 11.7096 13.9175V13.9231H31.2981C32.0005 13.9217 32.5652 13.3528 32.5652 12.6559C32.5652 12.6455 32.5624 12.6357 32.5624 12.6252V10.4376H36.0514L36.0521 53.3341Z" fill="white"/>
<path d="M13.9161 23.9336C13.9161 23.4737 13.5408 23.0984 13.0788 23.0984C13.0571 23.0984 13.0383 23.1089 13.0173 23.111V23.0984H11.2686C10.8066 23.0984 10.4306 23.4751 10.4306 23.935V25.7487V25.7501C10.4306 26.2086 10.8059 26.5839 11.2686 26.5839H13.018V26.5713C13.039 26.5727 13.0571 26.5839 13.0781 26.5839C13.5415 26.5839 13.9168 26.2086 13.9168 25.7501V25.7487V23.935L13.9161 23.9336Z" fill="white"/>
<path d="M32.5638 23.9336C32.5638 23.4737 32.1885 23.0984 31.7265 23.0984C31.7258 23.0984 31.7258 23.0984 31.7251 23.0984H18.2403C17.7783 23.0984 17.4023 23.4751 17.4023 23.935V25.7487V25.7501C17.4023 26.2086 17.7776 26.5839 18.2403 26.5839H31.7258C32.1892 26.5839 32.5645 26.2086 32.5645 25.7501V25.7487V23.935L32.5638 23.9336Z" fill="white"/>
<path d="M13.9161 30.9054C13.9161 30.4455 13.5408 30.0702 13.0788 30.0702C13.0571 30.0702 13.0383 30.0807 13.0173 30.0828V30.0702H11.2686C10.8066 30.0702 10.4306 30.4469 10.4306 30.9068V32.7205V32.7219C10.4306 33.1804 10.8059 33.5557 11.2686 33.5557H13.018V33.5431C13.039 33.5445 13.0571 33.5557 13.0781 33.5557C13.5415 33.5557 13.9168 33.1804 13.9168 32.7219V32.7205V30.9068L13.9161 30.9054Z" fill="white"/>
<path d="M32.5638 30.9054C32.5638 30.4455 32.1885 30.0702 31.7265 30.0702C31.7258 30.0702 31.7258 30.0702 31.7251 30.0702H18.2403C17.7783 30.0702 17.4023 30.4469 17.4023 30.9068V32.7205V32.7219C17.4023 33.1804 17.7776 33.5557 18.2403 33.5557H31.7258C32.1892 33.5557 32.5645 33.1804 32.5645 32.7219V32.7205V30.9068L32.5638 30.9054Z" fill="white"/>
<path d="M13.9161 37.8771C13.9161 37.4172 13.5408 37.0419 13.0788 37.0419C13.0571 37.0419 13.0383 37.0524 13.0173 37.0544V37.0419H11.2686C10.8066 37.0419 10.4306 37.4186 10.4306 37.8785V39.6922V39.6936C10.4306 40.152 10.8059 40.5274 11.2686 40.5274H13.018V40.5148C13.039 40.5162 13.0571 40.5274 13.0781 40.5274C13.5415 40.5274 13.9168 40.152 13.9168 39.6936V39.6922V37.8785L13.9161 37.8771Z" fill="white"/>
<path d="M32.5638 37.8771C32.5638 37.4172 32.1885 37.0419 31.7265 37.0419C31.7258 37.0419 31.7258 37.0419 31.7251 37.0419H18.2403C17.7783 37.0419 17.4023 37.4186 17.4023 37.8785V39.6922V39.6936C17.4023 40.152 17.7776 40.5274 18.2403 40.5274H31.7258C32.1892 40.5274 32.5645 40.152 32.5645 39.6936V39.6922V37.8785L32.5638 37.8771Z" fill="white"/>
</svg>
